<svg xmlns="http://www.w3.org/2000/svg" width="1200" height="320" viewBox="0 0 1200 320">
  <defs>
    <linearGradient id="bg" x1="0" y1="0" x2="1" y2="1">
      <stop offset="0%" stop-color="#1e1b4b"/>
      <stop offset="50%" stop-color="#4c1d95"/>
      <stop offset="100%" stop-color="#0d9488"/>
    </linearGradient>
  </defs>
  <rect width="1200" height="320" rx="24" fill="url(#bg)"/>
  <circle cx="980" cy="80" r="120" fill="#7c3aed" opacity="0.18"/>
  <circle cx="1050" cy="220" r="90" fill="#14b8a6" opacity="0.22"/>
  <circle cx="150" cy="260" r="70" fill="#c4b5fd" opacity="0.12"/>
  <rect x="72" y="88" width="96" height="96" rx="22" fill="#a78bfa"/>
  <rect x="88" y="108" width="64" height="8" rx="4" fill="#1e1b4b" opacity="0.8"/>
  <rect x="88" y="126" width="48" height="8" rx="4" fill="#1e1b4b" opacity="0.8"/>
  <rect x="88" y="144" width="56" height="8" rx="4" fill="#1e1b4b" opacity="0.8"/>
  <circle cx="144" cy="160" r="14" fill="#1e1b4b" opacity="0.75"/>
  <path d="M138 160l4 4 8-10" stroke="#5eead4" stroke-width="3" fill="none" stroke-linecap="round" stroke-linejoin="round"/>
  <text x="200" y="130" fill="#f8fafc" font-family="Arial, Helvetica, sans-serif" font-size="52" font-weight="700">MindTrack</text>
  <text x="200" y="175" fill="#c4b5fd" font-family="Arial, Helvetica, sans-serif" font-size="22">Smart Task Organizer - ADHD-Friendly - AI-Powered</text>
  <text x="200" y="220" fill="#99f6e4" font-family="Arial, Helvetica, sans-serif" font-size="16">Graduation Project - Full-Stack Portfolio</text>
  <rect x="200" y="248" width="420" height="36" rx="18" fill="#7c3aed" opacity="0.35"/>
  <text x="220" y="272" fill="#ede9fe" font-family="Arial, Helvetica, sans-serif" font-size="14" font-weight="600">FastAPI - PostgreSQL - Prompt Engineering</text>
</svg>
